P3
3 2
255
253   0   2     2 253   2     0   1 253
255 253   2   253 254 252     1   0   0
