P3
3 2
255
250   0   0     0 250   0     0   0 250
250 250   0   250 250 250     0   0   0
